[img]http://img24.imageshack.us/img24/82/901661.jpg[/img]



[img]http://leetleech.org/images/48874973695367351744.png[/img]


Format                           : AVI
Format/Info                      : Audio Video Interleave
File size                        : 757 MiB
Duration                         : 1h 28mn
Overall bit rate                 : 1 196 Kbps
Writing library                  : VirtualDub build 32839/release

Video
ID                               : 0
Format                           : MPEG-4 Visual
Format profile                   : Advanced Simple@L5
Format settings, BVOP            : Yes
Format settings, QPel            : No
Format settings, GMC             : No warppoints
Format settings, Matrix          : Custom
Codec ID                         : XVID
Codec ID/Hint                    : XviD
Duration                         : 1h 28mn
Bit rate                         : 1 059 Kbps
Width                            : 672 pixels
Height                           : 384 pixels
Display aspect ratio             : 16:9
Frame rate                       : 23.976 fps
Color space                      : YUV
Chroma subsampling               : 4:2:0
Bit depth                        : 8 bits
Scan type                        : Progressive
Bits/(Pixel*Frame)               : 0.171
Stream size                      : 670 MiB (89%)
Writing library                  : XviD 1.2.1 (UTC 2008-12-04)

Audio
ID                               : 1
Format                           : MPEG Audio
Format version                   : Version 1
Format profile                   : Layer 3
Mode                             : Joint stereo
Mode extension                   : MS Stereo
Codec ID                         : 55
Codec ID/Hint                    : MP3
Duration                         : 1h 28mn
Bit rate mode                    : Constant
Bit rate                         : 128 Kbps
Channel(s)                       : 2 channels
Sampling rate                    : 48.0 KHz
Stream size                      : 81.0 MiB (11%)
Alignment                        : Split accross interleaves
Interleave, duration             : 42 ms (1.00 video frame)
Interleave, preload duration     : 500 ms




[url]http://www.imdb.com/title/tt1575694/[/url]




[IMG]http://leetleech.org/images/89524873606771859129.png[/IMG]



Users: 1.9/10 (19 votes) write review

A disgruntled man creates a hit list with a stranger during a drunken night out and must then race to try to save those he marked for extermination as the bodies begin to pile up and all fingers point to him.
Director:
William Kaufman
Writers:
Chad Law, Evan Law
Stars:
Cuba Gooding Jr., Cole Hauser and Jonathan LaPaglia



[img]http://leetleech.org/images/95521316153253938506.png[/img]




[img]http://img846.imageshack.us/img846/6861/vlcsnap2011041712h51m03.png[/img]

[img]http://img850.imageshack.us/img850/7264/vlcsnap2011041712h50m57.png[/img]

[img]http://img846.imageshack.us/img846/6861/vlcsnap2011041712h51m03.png[/img]



Source: CHD ...............Thanks 



Greetz to Imagine ,Flawl3ss,DiLLoN,BDK,NOiR,TOXiCiNK,THC,Ez,Rx,Boobyblue





[img]http://img411.imageshack.us/img411/6898/sig1n.jpg[/img]




